PathFileType	4	(X/Y/Z)	Patient4_TMGait_0pt5_02_right_40.trc.trc
DataRate	CameraRate	NumFrames	NumMarkers	Units	OrigDataRate	OrigDataStartFrame	OrigNumFrames
78.212290502793	78.212290502793	4	33	mm	78.212290502793	71	       141
Frame#	Time	Sacral			L.Shoulder			Chest			R.Shoulder			Neck			R.ASIS			L.ASIS			R.Thigh.Superior			R.Thigh.Lateral			R.Thigh.Inferior			R.Patella			L.Thigh.Superior			L.Thigh.Lateral			L.Thigh.Inferior			L.Patella			L.Shank.Superior			L.Shank.Lateral			L.Shank.Inferior			R.Shank.Superior			R.Shank.Lateral			R.Shank.Inferior			R.Heel			R.Midfoot.Superior			R.Midfoot.Lateral			R.Toe			L.Heel			L.Midfoot.Lateral			L.Midfoot.Superior			L.Toe			L.Elbow			L.Wrist			R.Elbow			R.Wrist			
		X1	Y1	Z1	X2	Y2	Z2	X3	Y3	Z3	X4	Y4	Z4	X5	Y5	Z5	X6	Y6	Z6	X7	Y7	Z7	X8	Y8	Z8	X9	Y9	Z9	X10	Y10	Z10	X11	Y11	Z11	X12	Y12	Z12	X13	Y13	Z13	X14	Y14	Z14	X15	Y15	Z15	X16	Y16	Z16	X17	Y17	Z17	X18	Y18	Z18	X19	Y19	Z19	X20	Y20	Z20	X21	Y21	Z21	X22	Y22	Z22	X23	Y23	Z23	X24	Y24	Z24	X25	Y25	Z25	X26	Y26	Z26	X27	Y27	Z27	X28	Y28	Z28	X29	Y29	Z29	X30	Y30	Z30	X31	Y31	Z31	X32	Y32	Z32	X33	Y33	Z33	

71	53.165000000000	691.578077588733	1011.276635824486	505.927440696116	870.167866582708	1426.615172749716	305.469287633696	986.196154793666	1350.917588732271	453.526660211485	928.639011440599	1432.341469817142	634.257604952102	890.832009641847	1488.054735820734	454.700337716596	920.644873713528	933.854470551834	604.975520763140	889.406714179276	953.212002298311	331.165964471905	927.668994976267	724.125414124576	572.287911819439	834.555703133232	627.058573138014	638.329677460749	892.793238987951	564.831771378515	552.360661032635	877.120491610849	477.742560613535	555.936731049143	964.585370125400	770.891875817973	367.975411969639	912.477021210556	642.130646034488	295.572656905641	1011.726329290124	582.761900695262	361.695019240278	1033.660427557942	515.793330552444	363.630697810946	1017.894047357988	443.505763002443	352.170970083390	953.347489642556	314.821009131269	297.784219115380	1034.183005800624	214.931452473280	359.458169974667	839.613415276251	393.120367950219	565.061277169305	760.714766499654	298.566756299049	631.301867839823	783.319165502424	200.406956121197	564.811863147609	630.417602160254	43.652543027876	542.027977930122	802.975994674372	96.096524918889	571.285972322208	715.754548584782	36.571683627845	614.073019058521	923.613059671575	41.329965360477	597.092150149257	942.833250415665	41.429915472583	394.969292204260	1019.914736954847	42.834042903659	317.716340211336	1094.066824979930	114.283785916429	342.190043684406	1226.513856816920	77.154602854196	321.339792104428	720.988612498478	1100.424230789929	219.134492984491	674.851361820719	844.848137968671	238.651642698828	1088.565257258777	1140.633247757968	734.510180881588	1266.495750149500	1266.055492046322	615.879800940349	
72	53.177785714286	692.902373213572	1010.190719356866	503.494164121426	869.626011310005	1425.971359615259	303.086351400882	985.914014060119	1350.795067986166	451.191690212013	927.801223925092	1431.738146198584	631.954302568205	889.925498689859	1487.464937320596	452.395839110352	921.893038284135	933.376042313888	603.220595007310	891.277372402411	951.779473485975	329.462733178246	927.386530722154	723.044272757322	571.493166062662	832.744463094541	626.667707008434	637.262966323223	890.650749107390	563.723071553547	551.769346706751	873.988740316665	476.634176675452	555.181082184654	965.683642113961	768.334037564310	366.516603774469	911.359414460566	639.721198570983	295.227322322737	1010.464514561180	579.882335569912	361.243044176395	1030.675506863148	512.117795880231	363.884066005410	1014.413274239119	439.860667500034	352.410669292502	948.042396547570	311.962130677208	298.333280837846	1027.348135027061	211.140083842560	360.425734406607	835.781456915183	392.444052944127	564.412047357092	756.057598133768	298.684687505108	630.910971303526	777.895590032341	200.196844096890	564.555825550876	623.999499580510	43.876377715701	542.090297689770	796.663570189812	96.124408680366	571.287109126419	709.356404880279	36.645495364828	614.087178696966	917.187692095015	41.083814453622	597.168847356890	932.821784378913	40.094281063204	395.894430803932	1009.999294437752	40.156433981513	318.574602342250	1085.845082767398	109.431517240514	343.766210258523	1217.674913486557	69.050286985938	322.741774525527	719.834670568834	1100.240835520961	217.183185733294	674.289208613317	844.498865942307	237.352631262258	1089.531124991569	1140.693391324540	731.446640470672	1264.418051814566	1268.954461606137	611.478911335124	
73	53.190571428571	694.175821955498	1009.224610827909	501.015955507648	869.231182857374	1425.302062351474	300.516615225279	985.714069722060	1350.699708896541	448.767153654541	926.986513595144	1431.232357794841	629.526085784549	889.152143461091	1486.940057421377	449.872392893271	923.100458447005	932.912512555237	601.386975957811	893.121158332022	950.501448001593	327.724204601921	927.332861607683	722.021623189614	570.606274439994	831.241051941745	626.295427931214	636.031559995902	888.872638895302	562.704419798622	550.969672274543	871.336573344690	475.454995850918	554.260203688209	966.731728644074	765.968639280696	365.255289784453	910.552667002372	637.774515175685	294.681020776984	1009.256850399511	577.372920794808	360.922972958826	1027.839966233431	508.877467407915	364.098672312427	1011.149999017953	436.649661592692	352.507203567394	943.172025780811	309.517834986498	298.539197291288	1020.862940049949	207.819780176424	361.201274940395	832.277772044141	391.758982069549	563.617988643301	751.634582881960	298.903071640284	630.416198610934	772.634778475680	200.055899036807	564.244497570445	617.604450289266	44.307639659911	542.169456212771	790.440905863319	96.207703877171	571.294135367343	702.993191660822	36.833189653272	614.109453400446	910.805145810747	40.805849940576	597.253961142631	923.305227852254	38.995921132113	396.492468826362	1000.597705370493	38.005112643337	319.141146219207	1077.887745015201	105.294220278754	345.167515580144	1209.186559630150	62.084238935702	324.011358243422	719.501873249167	1099.621960242904	214.979341875904	674.940143012324	843.652289938320	235.688001596591	1089.594916368356	1140.189250651080	728.634021720582	1262.217900914093	1270.341083899479	607.414590766275	
74	53.203357142857	695.336459191609	1008.453081502478	498.528170684028	868.988860794943	1424.656830626325	297.783707505372	985.602480558377	1350.660533373549	446.263302779290	926.248190034988	1430.886897132443	626.979578879658	888.550631278521	1486.530319387677	447.144552004931	924.195233007621	932.516770764550	599.464733454809	894.841475869947	949.474899830066	325.927127780740	927.495229985791	721.123939528525	569.561563312598	830.140530315729	625.955737388801	634.610636423955	887.587110106217	561.817004195618	549.922488209644	869.349612584406	474.201769598338	553.178604223084	967.708405019810	763.995448866983	364.167477265264	910.105797776998	636.401920506078	293.928103315349	1008.188248471128	575.393107466508	360.654000780084	1025.288694221225	506.242065122475	364.196245251496	1008.234585353135	434.012062564678	352.427281189642	938.886721343569	307.611709345233	298.384219300998	1014.888802679905	205.108579272962	361.755059038212	829.239105252003	391.075720827963	562.674926357818	747.550774172776	299.268009663183	629.806890951419	767.608819919345	200.020246505280	563.884813806086	611.252184856118	45.052104992155	542.270296607271	784.353555455802	96.364000658191	571.320359638687	696.680938901237	37.188820745033	614.141463015028	904.482294416286	40.489147282335	597.346517111791	914.519238172470	38.183994842338	396.821749743529	991.919392379389	36.433217883273	319.451078878651	1070.360895119179	102.031925149843	346.325818330804	1201.228105822948	56.531352432989	325.054925159895	720.038407017716	1098.593625129416	212.527783685273	676.821013896084	842.344127592733	233.650146673374	1088.748103305985	1139.158560701799	726.068957976124	1259.964762743084	1270.226078044094	603.693909703047	
